# xmcd
#
# Track frame offsets: 
#        150
#        19909
#        37481
#        65808
#        81347
#        106225
#        129727
#        151593
#        172840
#        201506
#        219831
#
# Disc length: 3205 seconds
#
# Revision: 1
# Processed by: cddbd v1.5.2PL0 Copyright (c) Steve Scherf et al.
# Submitted via: ExactAudioCopy v0.99pb5
#
DISCID=9a0c830b
DTITLE=Carlitos Almonte Y Su Acordeon Cinco Estrellas - Mambeao
DYEAR=2009
DGENRE=Merengue
TTITLE0=La Asesina
TTITLE1=Los Llantos de Ramon
TTITLE2=La Mala Mana
TTITLE3=Miladia
TTITLE4=Maria Morena
TTITLE5=Carlisto No Llora
TTITLE6=Mi Gran Noche
TTITLE7=La Bailadora
TTITLE8=San Francisco
TTITLE9=Temeridad
TTITLE10=La Cama Vacia
EXTD=YEAR: 2009
EXTT0=
EXTT1=
EXTT2=
EXTT3=
EXTT4=
EXTT5=
EXTT6=
EXTT7=
EXTT8=
EXTT9=
EXTT10=
PLAYORDER=
